<svg width="375" height="233" viewBox="0 0 375 233" fill="none" xmlns="http://www.w3.org/2000/svg">
<path d="M187.501 233C267.812 233 332.918 229.83 332.918 225.92C332.918 222.01 267.812 218.841 187.501 218.841C107.189 218.841 42.083 222.01 42.083 225.92C42.083 229.83 107.189 233 187.501 233Z" fill="#F5F5F5"/>
<path d="M241.463 61.1768H107.28C104.248 61.1768 101.79 63.2264 101.79 65.7547V197.502C101.79 200.03 104.248 202.08 107.28 202.08H241.463C244.495 202.08 246.953 200.03 246.953 197.502V65.7547C246.953 63.2264 244.495 61.1768 241.463 61.1768Z" fill="#0EA5E9"/>
<path opacity="0.6" d="M241.463 61.1768H107.28C104.248 61.1768 101.79 63.2264 101.79 65.7547V197.502C101.79 200.03 104.248 202.08 107.28 202.08H241.463C244.495 202.08 246.953 200.03 246.953 197.502V65.7547C246.953 63.2264 244.495 61.1768 241.463 61.1768Z" fill="white"/>
<path d="M223.44 125.8H125.31V139.809H223.44V125.8Z" fill="white"/>
<g opacity="0.4">
<path d="M134.086 134.168V134.537H130.681V130.521H133.981V130.884H131.191V132.316H133.681V132.673H131.191V134.168H134.086Z" fill="#263238"/>
<path d="M134.769 132.804H136.576V133.154H134.769V132.804Z" fill="#263238"/>
<path d="M143.633 132.785V134.536H143.146V132.823C143.146 132.197 142.763 131.86 142.111 131.86C141.941 131.853 141.773 131.877 141.616 131.931C141.459 131.985 141.318 132.066 141.203 132.17C141.088 132.273 141.002 132.397 140.95 132.531C140.898 132.665 140.882 132.808 140.903 132.948V134.536H140.408V132.823C140.408 132.197 140.026 131.86 139.366 131.86C139.196 131.853 139.028 131.877 138.871 131.931C138.714 131.985 138.573 132.066 138.458 132.17C138.343 132.273 138.257 132.397 138.205 132.531C138.153 132.665 138.137 132.808 138.158 132.948V134.536H137.663V131.516H138.136V132.066C138.277 131.882 138.474 131.731 138.707 131.63C138.94 131.53 139.201 131.481 139.463 131.491C139.728 131.472 139.994 131.522 140.223 131.634C140.453 131.746 140.635 131.914 140.746 132.116C140.895 131.915 141.107 131.75 141.359 131.64C141.611 131.53 141.894 131.479 142.178 131.491C142.382 131.478 142.586 131.503 142.776 131.565C142.967 131.627 143.138 131.723 143.278 131.847C143.417 131.971 143.522 132.12 143.583 132.283C143.645 132.445 143.662 132.617 143.633 132.785Z" fill="#263238"/>
<path d="M147.699 132.66V134.536H147.226V134.061C147.092 134.23 146.905 134.366 146.686 134.454C146.467 134.542 146.223 134.579 145.981 134.562C145.164 134.562 144.661 134.205 144.661 133.686C144.661 133.167 145.021 132.829 146.056 132.829H147.204V132.648C147.204 132.129 146.859 131.847 146.184 131.847C145.743 131.843 145.315 131.969 144.976 132.204L144.759 131.904C145.182 131.619 145.715 131.473 146.259 131.491C146.45 131.471 146.644 131.488 146.827 131.539C147.01 131.591 147.176 131.676 147.314 131.788C147.453 131.9 147.559 132.037 147.625 132.188C147.692 132.339 147.717 132.5 147.699 132.66ZM147.204 133.63V133.136H146.071C145.374 133.136 145.141 133.361 145.141 133.673C145.141 133.986 145.479 134.243 146.056 134.243C146.301 134.256 146.544 134.204 146.751 134.094C146.957 133.983 147.116 133.821 147.204 133.63Z" fill="#263238"/>
<path d="M148.913 130.565C148.914 130.526 148.924 130.488 148.943 130.453C148.961 130.418 148.988 130.386 149.022 130.359C149.055 130.332 149.094 130.311 149.138 130.297C149.181 130.283 149.227 130.277 149.273 130.277C149.318 130.277 149.363 130.283 149.406 130.297C149.448 130.311 149.487 130.331 149.519 130.357C149.552 130.383 149.578 130.415 149.596 130.449C149.615 130.484 149.625 130.521 149.626 130.559C149.627 130.598 149.618 130.637 149.601 130.673C149.584 130.71 149.558 130.743 149.525 130.771C149.492 130.799 149.453 130.821 149.41 130.836C149.366 130.851 149.32 130.859 149.273 130.859C149.226 130.86 149.18 130.853 149.136 130.838C149.092 130.824 149.052 130.803 149.019 130.775C148.985 130.748 148.959 130.715 148.941 130.679C148.922 130.643 148.913 130.604 148.913 130.565ZM149.026 131.516H149.513V134.536H149.026V131.516Z" fill="#263238"/>
<path d="M150.871 130.278H151.359V134.537H150.871V130.278Z" fill="#263238"/>
</g>
<path d="M223.44 144.937H125.31V158.946H223.44V144.937Z" fill="white"/>
<g opacity="0.4">
<path d="M134.446 151.053C134.446 151.91 133.696 152.429 132.481 152.429H131.191V153.68H130.681V149.665H132.481C133.703 149.678 134.446 150.197 134.446 151.053ZM133.936 151.053C133.936 150.428 133.433 150.047 132.436 150.047H131.161V152.054H132.436C133.433 152.054 133.936 151.685 133.936 151.053Z" fill="#263238"/>
<path d="M138.143 151.823V153.699H137.67V153.224C137.536 153.393 137.35 153.529 137.131 153.617C136.911 153.705 136.668 153.742 136.425 153.724C135.608 153.724 135.105 153.367 135.105 152.842C135.105 152.317 135.465 151.973 136.5 151.973H137.648V151.785C137.648 151.272 137.295 150.991 136.62 150.991C136.182 150.986 135.756 151.113 135.42 151.347L135.195 151.041C135.623 150.763 136.154 150.619 136.695 150.634C136.89 150.613 137.087 150.63 137.272 150.682C137.458 150.734 137.627 150.82 137.766 150.935C137.906 151.049 138.012 151.189 138.077 151.342C138.143 151.496 138.165 151.661 138.143 151.823ZM137.655 152.786V152.292H136.5C135.803 152.292 135.578 152.523 135.578 152.836C135.578 153.149 135.908 153.399 136.493 153.399C136.74 153.414 136.986 153.363 137.196 153.252C137.405 153.142 137.566 152.978 137.655 152.786Z" fill="#263238"/>
<path d="M138.968 153.349L139.185 153.03C139.564 153.25 140.014 153.368 140.475 153.368C141.158 153.368 141.443 153.174 141.443 152.874C141.443 152.086 139.095 152.705 139.095 151.516C139.095 151.022 139.605 150.653 140.528 150.653C140.978 150.65 141.421 150.747 141.81 150.935L141.593 151.26C141.277 151.086 140.906 150.997 140.528 151.004C139.875 151.004 139.583 151.216 139.583 151.504C139.583 152.317 141.93 151.704 141.93 152.861C141.93 153.386 141.383 153.724 140.43 153.724C139.907 153.735 139.393 153.604 138.968 153.349Z" fill="#263238"/>
<path d="M142.328 153.348L142.553 153.03C142.927 153.252 143.376 153.37 143.836 153.367C144.526 153.367 144.803 153.173 144.803 152.873C144.803 152.085 142.463 152.704 142.463 151.516C142.463 151.022 142.973 150.653 143.888 150.653C144.338 150.648 144.782 150.745 145.171 150.934L144.961 151.26C144.642 151.086 144.268 150.997 143.888 151.003C143.236 151.003 142.951 151.216 142.951 151.504C142.951 152.317 145.298 151.704 145.298 152.861C145.298 153.386 144.743 153.724 143.798 153.724C143.272 153.734 142.757 153.603 142.328 153.348Z" fill="#263238"/>
<path d="M151.433 150.678L150.068 153.693H149.611L148.501 151.222L147.361 153.693H146.903L145.501 150.678H145.966L147.106 153.242L148.268 150.678H148.688L149.843 153.242L150.991 150.678H151.433Z" fill="#263238"/>
<path d="M151.703 152.185C151.703 151.881 151.811 151.584 152.014 151.331C152.217 151.078 152.505 150.881 152.842 150.764C153.179 150.648 153.55 150.617 153.908 150.677C154.266 150.736 154.595 150.882 154.853 151.098C155.111 151.313 155.287 151.587 155.358 151.885C155.429 152.184 155.392 152.493 155.253 152.774C155.113 153.055 154.877 153.296 154.573 153.465C154.27 153.634 153.913 153.724 153.548 153.724C153.304 153.731 153.06 153.696 152.832 153.621C152.605 153.546 152.398 153.433 152.225 153.289C152.052 153.145 151.916 152.972 151.827 152.782C151.737 152.593 151.695 152.389 151.703 152.185ZM154.891 152.185C154.879 151.965 154.79 151.752 154.634 151.574C154.478 151.395 154.263 151.259 154.015 151.181C153.767 151.104 153.498 151.089 153.24 151.138C152.982 151.188 152.747 151.299 152.564 151.459C152.382 151.619 152.26 151.82 152.213 152.037C152.167 152.255 152.198 152.479 152.302 152.681C152.407 152.884 152.581 153.057 152.803 153.177C153.024 153.298 153.283 153.362 153.548 153.361C153.731 153.364 153.913 153.335 154.082 153.277C154.251 153.218 154.403 153.13 154.53 153.02C154.656 152.909 154.753 152.778 154.815 152.634C154.878 152.491 154.903 152.338 154.891 152.185Z" fill="#263238"/>
<path d="M158.205 150.653V151.047H158.085C157.914 151.04 157.742 151.065 157.584 151.12C157.425 151.174 157.282 151.257 157.166 151.363C157.05 151.469 156.964 151.594 156.913 151.731C156.861 151.868 156.847 152.012 156.87 152.154V153.693H156.383V150.678H156.848V151.266C156.974 151.062 157.171 150.895 157.413 150.786C157.656 150.676 157.931 150.63 158.205 150.653Z" fill="#263238"/>
<path d="M162.353 149.471V153.724H161.888V153.13C161.742 153.327 161.537 153.489 161.292 153.599C161.047 153.709 160.771 153.763 160.493 153.755C160.025 153.73 159.586 153.558 159.265 153.272C158.944 152.987 158.766 152.611 158.766 152.22C158.766 151.829 158.944 151.452 159.265 151.167C159.586 150.882 160.025 150.709 160.493 150.684C160.767 150.679 161.039 150.734 161.28 150.844C161.52 150.954 161.722 151.115 161.866 151.31V149.471H162.353ZM161.873 152.217C161.861 151.996 161.772 151.783 161.616 151.605C161.461 151.426 161.246 151.29 160.998 151.212C160.75 151.135 160.48 151.12 160.222 151.17C159.964 151.219 159.729 151.331 159.547 151.491C159.364 151.65 159.242 151.851 159.195 152.069C159.149 152.286 159.18 152.51 159.285 152.713C159.39 152.915 159.564 153.088 159.785 153.209C160.007 153.33 160.266 153.393 160.531 153.392C160.717 153.396 160.902 153.366 161.074 153.306C161.246 153.245 161.4 153.155 161.527 153.041C161.654 152.926 161.75 152.791 161.81 152.644C161.87 152.497 161.891 152.34 161.873 152.185V152.217Z" fill="#263238"/>
</g>
<path opacity="0.2" d="M223.44 173.236H125.31V187.245H223.44V173.236Z" fill="black"/>
<g opacity="0.5">
<path d="M149.175 166.801H147.57L147.225 167.427H146.91L148.223 165.031H148.523L149.835 167.427H149.52L149.175 166.801ZM149.063 166.595L148.373 165.306L147.683 166.595H149.063Z" fill="black"/>
<path d="M150.255 164.9H150.547V167.439H150.255V164.9Z" fill="black"/>
<path d="M152.452 165.626V165.863H152.377C152.273 165.856 152.167 165.868 152.069 165.899C151.971 165.93 151.883 165.98 151.81 166.044C151.738 166.107 151.684 166.184 151.653 166.267C151.621 166.351 151.612 166.439 151.627 166.526V167.445H151.335V165.644H151.62V165.995C151.695 165.868 151.816 165.765 151.965 165.699C152.114 165.632 152.285 165.607 152.452 165.626Z" fill="black"/>
<path d="M154.837 166.613H153C153.006 166.701 153.032 166.787 153.078 166.866C153.124 166.945 153.188 167.016 153.267 167.074C153.346 167.132 153.438 167.177 153.537 167.205C153.637 167.233 153.742 167.245 153.847 167.239C153.972 167.242 154.096 167.224 154.211 167.184C154.326 167.144 154.43 167.084 154.515 167.007L154.672 167.164C154.517 167.299 154.318 167.394 154.099 167.435C153.879 167.477 153.65 167.463 153.44 167.396C153.23 167.329 153.049 167.212 152.918 167.06C152.788 166.907 152.715 166.726 152.707 166.538C152.7 166.42 152.722 166.301 152.772 166.189C152.823 166.078 152.9 165.976 152.999 165.891C153.098 165.805 153.217 165.737 153.349 165.692C153.481 165.646 153.622 165.623 153.765 165.625C153.908 165.622 154.049 165.644 154.181 165.69C154.313 165.735 154.432 165.803 154.531 165.889C154.63 165.975 154.706 166.077 154.755 166.189C154.804 166.3 154.824 166.42 154.815 166.538C154.815 166.538 154.837 166.588 154.837 166.613ZM153.03 166.432H154.53C154.53 166.266 154.451 166.107 154.31 165.99C154.17 165.873 153.979 165.807 153.78 165.807C153.581 165.807 153.39 165.873 153.25 165.99C153.109 166.107 153.03 166.266 153.03 166.432Z" fill="black"/>
<path d="M157.005 166.357V167.47H156.75V167.189C156.67 167.292 156.558 167.374 156.426 167.427C156.293 167.48 156.146 167.501 156 167.489C155.513 167.489 155.25 167.276 155.25 166.964C155.25 166.651 155.46 166.451 156.083 166.451H156.75V166.344C156.75 166.038 156.54 165.869 156.135 165.869C155.862 165.861 155.595 165.936 155.385 166.082L155.257 165.9C155.506 165.735 155.817 165.649 156.135 165.656C156.251 165.64 156.37 165.646 156.483 165.675C156.595 165.704 156.698 165.755 156.783 165.823C156.867 165.891 156.932 165.975 156.97 166.068C157.009 166.161 157.021 166.26 157.005 166.357ZM156.72 166.932V166.632H156.038C155.618 166.632 155.482 166.77 155.482 166.957C155.482 167.145 155.685 167.295 156.03 167.295C156.185 167.305 156.34 167.272 156.471 167.2C156.601 167.129 156.699 167.024 156.75 166.901L156.72 166.932Z" fill="black"/>
<path d="M159.751 164.9V167.439H159.473V167.083C159.388 167.202 159.265 167.3 159.119 167.366C158.972 167.432 158.807 167.464 158.641 167.458C158.365 167.439 158.108 167.334 157.92 167.164C157.733 166.995 157.629 166.772 157.629 166.542C157.629 166.311 157.733 166.089 157.92 165.919C158.108 165.749 158.365 165.644 158.641 165.625C158.803 165.622 158.964 165.652 159.108 165.715C159.253 165.777 159.375 165.869 159.466 165.982V164.9H159.751ZM159.466 166.538C159.458 166.408 159.405 166.281 159.312 166.176C159.22 166.07 159.092 165.989 158.945 165.943C158.798 165.897 158.638 165.888 158.485 165.917C158.332 165.947 158.192 166.013 158.084 166.107C157.975 166.202 157.902 166.321 157.874 166.45C157.846 166.579 157.864 166.712 157.926 166.833C157.988 166.953 158.09 167.056 158.221 167.128C158.352 167.2 158.506 167.239 158.663 167.239C158.775 167.244 158.887 167.23 158.991 167.197C159.096 167.163 159.19 167.112 159.269 167.046C159.348 166.979 159.409 166.9 159.448 166.812C159.487 166.725 159.503 166.632 159.496 166.538H159.466Z" fill="black"/>
<path d="M162.413 165.638L161.333 167.658C161.153 168.008 160.92 168.121 160.583 168.121C160.389 168.125 160.201 168.067 160.058 167.958L160.193 167.777C160.298 167.865 160.441 167.914 160.59 167.914C160.785 167.914 160.913 167.839 161.04 167.608L161.13 167.439L160.163 165.638H160.5L161.318 167.17L162.128 165.638H162.413Z" fill="black"/>
<path d="M165.532 166.357V167.47H165.255V167.189C165.175 167.292 165.063 167.374 164.931 167.427C164.798 167.48 164.651 167.501 164.505 167.489C164.017 167.489 163.755 167.276 163.755 166.964C163.755 166.651 163.965 166.451 164.587 166.451H165.27V166.344C165.27 166.038 165.067 165.869 164.662 165.869C164.39 165.861 164.123 165.936 163.912 166.082L163.777 165.9C164.029 165.735 164.342 165.649 164.662 165.656C164.778 165.64 164.898 165.646 165.01 165.675C165.123 165.704 165.225 165.755 165.31 165.823C165.395 165.891 165.459 165.975 165.498 166.068C165.536 166.161 165.548 166.26 165.532 166.357ZM165.24 166.932V166.632H164.565C164.145 166.632 164.01 166.77 164.01 166.957C164.01 167.145 164.212 167.295 164.557 167.295C164.707 167.3 164.855 167.264 164.978 167.193C165.101 167.122 165.193 167.02 165.24 166.901V166.932Z" fill="black"/>
<path d="M171 166.395V167.439H170.715V166.42C170.715 166.038 170.482 165.844 170.092 165.844C169.992 165.838 169.891 165.849 169.796 165.878C169.702 165.908 169.616 165.953 169.544 166.013C169.473 166.072 169.418 166.144 169.383 166.223C169.348 166.302 169.334 166.386 169.342 166.47V167.414H169.057V166.42C169.057 166.038 168.825 165.844 168.427 165.844C168.327 165.838 168.226 165.849 168.131 165.878C168.037 165.908 167.951 165.953 167.879 166.013C167.808 166.072 167.753 166.144 167.718 166.223C167.683 166.302 167.669 166.386 167.677 166.47V167.414H167.385V165.613H167.662V165.944C167.745 165.832 167.863 165.741 168.003 165.681C168.143 165.62 168.3 165.592 168.457 165.6C168.615 165.59 168.772 165.621 168.906 165.69C169.041 165.758 169.146 165.861 169.207 165.982C169.295 165.859 169.42 165.759 169.571 165.692C169.722 165.625 169.892 165.593 170.062 165.6C170.192 165.581 170.325 165.588 170.451 165.622C170.576 165.655 170.69 165.713 170.782 165.791C170.874 165.87 170.942 165.965 170.98 166.071C171.018 166.176 171.025 166.287 171 166.395Z" fill="black"/>
<path d="M173.655 166.614H171.847C171.863 166.791 171.961 166.956 172.121 167.073C172.281 167.19 172.49 167.249 172.702 167.239C172.826 167.243 172.949 167.224 173.063 167.184C173.177 167.144 173.279 167.084 173.362 167.008L173.527 167.164C173.422 167.26 173.293 167.336 173.149 167.387C173.006 167.437 172.851 167.462 172.695 167.458C172.546 167.466 172.397 167.448 172.257 167.405C172.118 167.362 171.99 167.295 171.884 167.208C171.777 167.121 171.693 167.017 171.638 166.902C171.582 166.786 171.557 166.663 171.562 166.539C171.562 166.306 171.673 166.084 171.87 165.92C172.067 165.755 172.334 165.663 172.612 165.663C172.891 165.663 173.158 165.755 173.355 165.92C173.552 166.084 173.662 166.306 173.662 166.539C173.662 166.539 173.655 166.589 173.655 166.614ZM171.847 166.432H173.385C173.385 166.262 173.304 166.099 173.16 165.979C173.015 165.859 172.82 165.791 172.616 165.791C172.412 165.791 172.217 165.859 172.072 165.979C171.928 166.099 171.847 166.262 171.847 166.432Z" fill="black"/>
<path d="M177.825 166.395V167.439H177.532V166.42C177.532 166.038 177.307 165.844 176.917 165.844C176.817 165.837 176.715 165.847 176.62 165.876C176.525 165.905 176.438 165.951 176.367 166.01C176.295 166.07 176.24 166.142 176.206 166.222C176.171 166.301 176.158 166.386 176.167 166.47V167.414H175.875V166.42C175.875 166.038 175.65 165.844 175.252 165.844C175.152 165.837 175.05 165.847 174.955 165.876C174.86 165.905 174.773 165.951 174.702 166.01C174.63 166.07 174.575 166.142 174.541 166.222C174.506 166.301 174.493 166.386 174.502 166.47V167.414H174.21V165.613H174.487V165.944C174.57 165.832 174.687 165.74 174.827 165.68C174.967 165.619 175.125 165.592 175.282 165.6C175.44 165.59 175.597 165.621 175.731 165.69C175.866 165.758 175.971 165.861 176.032 165.982C176.12 165.859 176.246 165.759 176.396 165.692C176.547 165.625 176.717 165.593 176.887 165.6C177.017 165.581 177.15 165.588 177.276 165.622C177.401 165.655 177.515 165.713 177.607 165.791C177.7 165.87 177.768 165.965 177.806 166.071C177.844 166.176 177.85 166.287 177.825 166.395Z" fill="black"/>
<path d="M180.81 166.538C180.817 166.659 180.795 166.779 180.744 166.891C180.693 167.004 180.615 167.107 180.514 167.193C180.413 167.279 180.293 167.347 180.159 167.393C180.025 167.438 179.882 167.461 179.738 167.458C179.571 167.464 179.406 167.432 179.259 167.366C179.113 167.3 178.99 167.202 178.905 167.083V167.439H178.62V164.9H178.913V165.982C179.002 165.869 179.125 165.776 179.269 165.714C179.414 165.652 179.575 165.621 179.738 165.625C179.882 165.622 180.025 165.643 180.158 165.688C180.292 165.733 180.413 165.8 180.514 165.886C180.615 165.972 180.693 166.074 180.744 166.186C180.795 166.299 180.817 166.419 180.81 166.538ZM180.518 166.538C180.51 166.408 180.457 166.281 180.365 166.176C180.272 166.07 180.144 165.989 179.997 165.943C179.85 165.897 179.69 165.888 179.537 165.917C179.384 165.947 179.244 166.013 179.136 166.107C179.027 166.202 178.954 166.321 178.926 166.45C178.898 166.579 178.916 166.712 178.978 166.833C179.04 166.953 179.142 167.056 179.273 167.128C179.404 167.2 179.558 167.239 179.715 167.239C179.824 167.241 179.933 167.224 180.034 167.189C180.135 167.154 180.226 167.102 180.301 167.036C180.377 166.97 180.435 166.892 180.472 166.806C180.509 166.721 180.525 166.629 180.518 166.538Z" fill="black"/>
<path d="M183.293 166.614H181.501C181.506 166.701 181.533 166.787 181.579 166.866C181.624 166.945 181.689 167.016 181.768 167.074C181.846 167.132 181.938 167.177 182.038 167.205C182.138 167.233 182.243 167.245 182.348 167.239C182.473 167.239 182.596 167.216 182.709 167.171C182.821 167.127 182.921 167.063 183.001 166.982L183.166 167.139C183.011 167.275 182.811 167.369 182.592 167.41C182.372 167.452 182.143 167.438 181.933 167.371C181.723 167.305 181.542 167.187 181.411 167.035C181.281 166.882 181.208 166.701 181.201 166.513C181.193 166.395 181.215 166.276 181.266 166.164C181.316 166.053 181.393 165.951 181.492 165.866C181.591 165.78 181.71 165.712 181.842 165.667C181.974 165.621 182.115 165.598 182.258 165.6C182.4 165.597 182.542 165.619 182.674 165.665C182.805 165.71 182.924 165.778 183.022 165.864C183.12 165.95 183.196 166.052 183.244 166.164C183.292 166.276 183.311 166.395 183.301 166.513L183.293 166.614ZM181.486 166.432H182.986C182.986 166.266 182.907 166.107 182.766 165.99C182.625 165.873 182.434 165.807 182.236 165.807C182.037 165.807 181.846 165.873 181.705 165.99C181.565 166.107 181.486 166.266 181.486 166.432Z" fill="black"/>
<path d="M184.98 165.626V165.863H184.913C184.808 165.856 184.703 165.868 184.604 165.899C184.506 165.93 184.418 165.98 184.346 166.044C184.273 166.107 184.22 166.184 184.188 166.267C184.156 166.351 184.148 166.439 184.163 166.526V167.445H183.87V165.644H184.148V165.995C184.224 165.869 184.345 165.766 184.494 165.7C184.643 165.634 184.813 165.608 184.98 165.626Z" fill="black"/>
<path d="M186.87 165.657C186.87 165.407 186.63 165.238 186.21 165.238C186.062 165.231 185.915 165.252 185.778 165.3C185.642 165.347 185.52 165.42 185.423 165.513L185.205 165.375C185.333 165.255 185.492 165.16 185.67 165.099C185.848 165.037 186.04 165.01 186.233 165.019C186.81 165.019 187.178 165.25 187.178 165.644C187.178 166.226 186.428 166.27 186.428 166.745H186.12C186.12 166.157 186.87 166.101 186.87 165.657ZM186.06 167.277C186.069 167.235 186.096 167.197 186.135 167.17C186.174 167.143 186.223 167.129 186.274 167.129C186.325 167.129 186.374 167.143 186.413 167.17C186.452 167.197 186.478 167.235 186.488 167.277C186.493 167.303 186.492 167.33 186.484 167.356C186.476 167.381 186.462 167.405 186.441 167.426C186.421 167.446 186.395 167.463 186.366 167.474C186.337 167.486 186.306 167.491 186.274 167.491C186.242 167.491 186.21 167.486 186.181 167.474C186.152 167.463 186.127 167.446 186.106 167.426C186.086 167.405 186.071 167.381 186.063 167.356C186.055 167.33 186.054 167.303 186.06 167.277Z" fill="black"/>
<path d="M188.902 165.044H189.57V166.983H191.01V167.433H188.902V165.044Z" fill="black"/>
<path d="M191.161 166.52C191.145 166.317 191.204 166.115 191.328 165.941C191.452 165.766 191.636 165.626 191.856 165.54C192.077 165.454 192.323 165.425 192.563 165.456C192.804 165.488 193.027 165.579 193.205 165.718C193.382 165.857 193.505 166.037 193.559 166.235C193.612 166.433 193.593 166.64 193.503 166.829C193.414 167.018 193.259 167.18 193.058 167.294C192.857 167.408 192.619 167.47 192.376 167.47C192.22 167.479 192.063 167.46 191.916 167.417C191.769 167.373 191.634 167.304 191.52 167.215C191.407 167.126 191.316 167.018 191.254 166.898C191.192 166.779 191.16 166.65 191.161 166.52ZM192.938 166.52C192.929 166.429 192.889 166.342 192.822 166.27C192.755 166.198 192.665 166.144 192.561 166.114C192.458 166.084 192.347 166.08 192.241 166.102C192.135 166.124 192.039 166.172 191.965 166.238C191.89 166.305 191.841 166.389 191.823 166.478C191.804 166.568 191.818 166.661 191.862 166.744C191.905 166.828 191.977 166.899 192.068 166.949C192.159 166.999 192.266 167.026 192.376 167.026C192.454 167.027 192.531 167.015 192.603 166.989C192.675 166.964 192.74 166.926 192.793 166.878C192.846 166.83 192.886 166.773 192.911 166.712C192.936 166.65 192.945 166.584 192.938 166.52Z" fill="black"/>
<path d="M196.298 165.594V167.133C196.318 167.271 196.3 167.411 196.244 167.543C196.189 167.674 196.098 167.793 195.978 167.89C195.858 167.987 195.712 168.059 195.553 168.101C195.394 168.144 195.225 168.155 195.06 168.133C194.674 168.146 194.294 168.056 193.973 167.877L194.228 167.495C194.447 167.626 194.708 167.698 194.978 167.702C195.428 167.702 195.63 167.533 195.63 167.201V167.12C195.54 167.198 195.432 167.259 195.311 167.299C195.191 167.339 195.062 167.357 194.933 167.351C194.785 167.362 194.636 167.346 194.495 167.306C194.355 167.266 194.226 167.202 194.117 167.119C194.008 167.035 193.921 166.933 193.861 166.82C193.801 166.706 193.771 166.584 193.771 166.46C193.771 166.337 193.801 166.214 193.861 166.101C193.921 165.988 194.008 165.886 194.117 165.802C194.226 165.718 194.355 165.654 194.495 165.614C194.636 165.574 194.785 165.559 194.933 165.569C195.074 165.56 195.215 165.579 195.346 165.624C195.476 165.67 195.592 165.741 195.683 165.832V165.594H196.298ZM195.668 166.463C195.67 166.401 195.656 166.338 195.628 166.28C195.599 166.222 195.556 166.17 195.502 166.127C195.447 166.084 195.382 166.051 195.311 166.03C195.24 166.009 195.165 166.002 195.09 166.007C195.013 165.999 194.936 166.005 194.862 166.025C194.788 166.044 194.72 166.076 194.662 166.119C194.605 166.162 194.558 166.214 194.527 166.273C194.495 166.332 194.479 166.396 194.479 166.46C194.479 166.525 194.495 166.588 194.527 166.647C194.558 166.706 194.605 166.759 194.662 166.801C194.72 166.844 194.788 166.876 194.862 166.896C194.936 166.915 195.013 166.921 195.09 166.914C195.164 166.919 195.239 166.911 195.31 166.891C195.38 166.87 195.444 166.838 195.499 166.796C195.553 166.753 195.596 166.702 195.626 166.644C195.655 166.587 195.669 166.526 195.668 166.463Z" fill="black"/>
<path d="M198 165.044C198.001 165.002 198.012 164.96 198.033 164.922C198.054 164.884 198.084 164.85 198.121 164.822C198.158 164.793 198.202 164.772 198.249 164.759C198.297 164.745 198.347 164.74 198.397 164.743C198.447 164.739 198.496 164.743 198.543 164.756C198.59 164.768 198.634 164.788 198.671 164.815C198.708 164.842 198.739 164.875 198.76 164.912C198.781 164.95 198.793 164.99 198.795 165.031C198.795 165.119 198.753 165.203 198.679 165.265C198.604 165.328 198.503 165.362 198.397 165.362C198.292 165.362 198.191 165.328 198.116 165.265C198.042 165.203 198 165.119 198 165.031V165.044ZM198.075 165.594H198.713V167.47H198.075V165.594Z" fill="black"/>
<path d="M201.555 166.357V167.414H200.918V166.445C200.918 166.145 200.753 166.007 200.468 166.007C200.183 166.007 199.935 166.163 199.935 166.501V167.414H199.298V165.538H199.913V165.757C200.01 165.674 200.127 165.609 200.256 165.567C200.385 165.525 200.524 165.506 200.663 165.513C200.792 165.508 200.922 165.527 201.041 165.569C201.161 165.611 201.267 165.675 201.353 165.756C201.439 165.837 201.502 165.933 201.537 166.037C201.572 166.141 201.578 166.251 201.555 166.357Z" fill="black"/>
</g>
<path d="M223.44 172.38H125.31V186.389H223.44V172.38Z" fill="#0EA5E9"/>
<path d="M161.7 181.561L160.5 180.116H160.14H158.715V181.573H157.89V176.776H160.14C161.64 176.776 162.532 177.402 162.532 178.452C162.551 178.785 162.438 179.114 162.21 179.387C161.982 179.661 161.653 179.864 161.272 179.966L162.637 181.573L161.7 181.561ZM161.7 178.434C161.7 177.746 161.152 177.358 160.095 177.358H158.7V179.516H160.095C161.13 179.522 161.677 179.122 161.677 178.44L161.7 178.434Z" fill="white"/>
<path d="M167.64 179.966H164.108C164.163 180.275 164.356 180.556 164.647 180.753C164.939 180.949 165.308 181.048 165.683 181.029C165.918 181.036 166.153 181 166.37 180.925C166.587 180.849 166.783 180.735 166.943 180.591L167.378 181.016C167.057 181.288 166.648 181.477 166.202 181.56C165.756 181.643 165.29 181.617 164.861 181.485C164.432 181.353 164.058 181.12 163.783 180.815C163.508 180.51 163.345 180.146 163.313 179.766C163.297 179.52 163.342 179.274 163.446 179.044C163.55 178.814 163.71 178.604 163.915 178.428C164.121 178.252 164.368 178.113 164.641 178.02C164.915 177.927 165.208 177.883 165.503 177.889C165.796 177.883 166.088 177.927 166.359 178.02C166.63 178.113 166.875 178.253 167.078 178.429C167.281 178.606 167.437 178.816 167.536 179.046C167.636 179.277 167.676 179.522 167.655 179.766C167.655 179.822 167.648 179.903 167.64 179.966ZM164.108 179.49H166.898C166.862 179.203 166.699 178.936 166.442 178.743C166.184 178.549 165.849 178.442 165.503 178.442C165.156 178.442 164.821 178.549 164.563 178.743C164.306 178.936 164.143 179.203 164.108 179.49Z" fill="white"/>
<path d="M172.92 177.933V181.06C172.92 182.342 172.133 182.937 170.67 182.937C169.924 182.963 169.19 182.773 168.593 182.399L168.968 181.892C169.448 182.203 170.04 182.368 170.648 182.361C171.675 182.361 172.148 181.967 172.148 181.142V180.854C171.954 181.04 171.712 181.187 171.441 181.284C171.169 181.382 170.875 181.427 170.58 181.417C170.021 181.417 169.485 181.232 169.09 180.902C168.695 180.573 168.473 180.126 168.473 179.66C168.473 179.193 168.695 178.746 169.09 178.417C169.485 178.087 170.021 177.902 170.58 177.902C170.889 177.894 171.195 177.947 171.475 178.055C171.755 178.164 172.001 178.326 172.193 178.528V177.965L172.92 177.933ZM172.17 179.653C172.187 179.403 172.113 179.155 171.958 178.941C171.804 178.726 171.576 178.555 171.304 178.45C171.031 178.345 170.728 178.31 170.431 178.35C170.135 178.39 169.86 178.503 169.642 178.675C169.424 178.847 169.273 179.07 169.208 179.314C169.143 179.558 169.168 179.813 169.278 180.046C169.389 180.278 169.581 180.478 169.829 180.619C170.077 180.759 170.37 180.835 170.67 180.835C170.862 180.845 171.054 180.821 171.235 180.766C171.415 180.71 171.58 180.624 171.719 180.513C171.857 180.402 171.967 180.269 172.041 180.121C172.115 179.973 172.151 179.814 172.148 179.653H172.17Z" fill="white"/>
<path d="M174.285 176.808C174.286 176.75 174.301 176.693 174.328 176.641C174.355 176.588 174.395 176.54 174.444 176.5C174.494 176.46 174.552 176.428 174.616 176.407C174.68 176.386 174.749 176.375 174.818 176.376C174.89 176.369 174.964 176.374 175.034 176.393C175.104 176.411 175.168 176.441 175.223 176.482C175.278 176.522 175.322 176.572 175.352 176.628C175.382 176.683 175.397 176.744 175.397 176.805C175.397 176.866 175.382 176.926 175.352 176.982C175.322 177.037 175.278 177.087 175.223 177.128C175.168 177.168 175.104 177.198 175.034 177.217C174.964 177.235 174.89 177.24 174.818 177.233C174.749 177.235 174.681 177.225 174.617 177.204C174.553 177.184 174.494 177.153 174.445 177.113C174.395 177.074 174.355 177.026 174.328 176.974C174.301 176.921 174.286 176.865 174.285 176.808ZM174.428 177.933H175.215V181.561H174.428V177.933Z" fill="white"/>
<path d="M176.167 181.179L176.497 180.66C176.944 180.902 177.464 181.032 177.997 181.035C178.747 181.035 179.032 180.848 179.032 180.541C179.032 179.728 176.279 180.435 176.279 178.984C176.279 178.359 176.977 177.896 178.094 177.896C178.648 177.889 179.194 178.003 179.677 178.227L179.339 178.746C178.965 178.55 178.529 178.45 178.087 178.459C177.397 178.459 177.059 178.671 177.059 178.959C177.059 179.816 179.819 179.115 179.819 180.529C179.819 181.154 179.069 181.604 177.937 181.604C177.309 181.612 176.693 181.464 176.167 181.179Z" fill="white"/>
<path d="M183.285 181.367C183.012 181.541 182.675 181.631 182.332 181.623C182.147 181.641 181.96 181.624 181.784 181.573C181.608 181.522 181.447 181.439 181.315 181.33C181.183 181.221 181.081 181.088 181.018 180.942C180.956 180.795 180.933 180.639 180.952 180.485V178.49H180.202V177.952H180.952V177.158H181.702V177.952H183V178.49H181.747V180.46C181.729 180.54 181.734 180.623 181.761 180.702C181.788 180.781 181.837 180.853 181.903 180.913C181.969 180.974 182.051 181.021 182.142 181.051C182.233 181.081 182.332 181.092 182.43 181.085C182.651 181.087 182.868 181.028 183.045 180.916L183.285 181.367Z" fill="white"/>
<path d="M188.01 179.966H184.5C184.556 180.276 184.75 180.558 185.043 180.755C185.336 180.952 185.707 181.05 186.083 181.029C186.317 181.036 186.551 181.001 186.767 180.925C186.984 180.85 187.177 180.736 187.335 180.591L187.77 181.016C187.45 181.289 187.043 181.478 186.597 181.561C186.15 181.645 185.685 181.619 185.256 181.487C184.827 181.355 184.453 181.122 184.179 180.816C183.906 180.511 183.744 180.146 183.713 179.765C183.697 179.52 183.743 179.274 183.847 179.044C183.95 178.814 184.11 178.604 184.316 178.428C184.521 178.252 184.769 178.113 185.042 178.02C185.315 177.927 185.608 177.883 185.903 177.889C186.196 177.883 186.487 177.929 186.758 178.022C187.029 178.115 187.273 178.255 187.476 178.431C187.678 178.608 187.834 178.818 187.934 179.047C188.034 179.277 188.075 179.522 188.055 179.765C188.048 179.833 188.033 179.9 188.01 179.966ZM184.5 179.49H187.298C187.255 179.206 187.089 178.945 186.831 178.756C186.574 178.567 186.242 178.463 185.899 178.463C185.556 178.463 185.225 178.567 184.967 178.756C184.71 178.945 184.544 179.206 184.5 179.49Z" fill="white"/>
<path d="M191.468 177.896V178.521H191.288C191.093 178.51 190.897 178.535 190.716 178.595C190.534 178.656 190.371 178.75 190.239 178.87C190.107 178.99 190.01 179.134 189.954 179.29C189.897 179.446 189.884 179.611 189.915 179.772V181.579H189.128V177.952H189.878V178.577C190.036 178.348 190.271 178.162 190.553 178.041C190.835 177.921 191.152 177.87 191.468 177.896Z" fill="white"/>
<g opacity="0.6">
<path d="M157.192 76.6807L157.53 76.0928C158.112 76.4996 158.848 76.7212 159.607 76.7182C160.695 76.7182 161.16 76.368 161.16 75.9114C161.16 74.6606 157.35 75.4361 157.35 73.4911C157.35 72.6781 158.1 71.9902 159.757 71.9902C160.471 71.9805 161.174 72.141 161.782 72.453L161.482 73.0784C160.967 72.8034 160.369 72.6559 159.757 72.6531C158.685 72.6531 158.257 73.0283 158.257 73.4849C158.257 74.7357 162.075 73.9602 162.075 75.8927C162.075 76.6932 161.325 77.3811 159.637 77.3811C158.749 77.3967 157.882 77.1484 157.192 76.6807Z" fill="#263238"/>
<path d="M163.08 72.0715C163.081 72.0085 163.097 71.9464 163.127 71.8886C163.157 71.8308 163.201 71.7786 163.255 71.735C163.309 71.6913 163.374 71.6571 163.444 71.6344C163.514 71.6116 163.59 71.6008 163.665 71.6024C163.74 71.5999 163.814 71.6098 163.884 71.6315C163.954 71.6531 164.018 71.6862 164.072 71.7286C164.127 71.7711 164.17 71.8222 164.201 71.8789C164.231 71.9356 164.248 71.9968 164.25 72.059C164.25 72.1884 164.188 72.3124 164.079 72.4039C163.969 72.4954 163.82 72.5468 163.665 72.5468C163.51 72.5468 163.361 72.4954 163.251 72.4039C163.142 72.3124 163.08 72.1884 163.08 72.059V72.0715ZM163.23 73.3223H164.1V77.2999H163.23V73.3223Z" fill="#263238"/>
<path d="M170.302 73.3035V76.737C170.302 78.1441 169.447 78.7821 167.835 78.7821C167.025 78.8035 166.232 78.5939 165.585 78.1879L165.997 77.6313C166.519 77.9759 167.169 78.1593 167.835 78.1504C168.96 78.1504 169.47 77.7126 169.47 76.812V76.4993C169.257 76.7038 168.993 76.866 168.696 76.9742C168.399 77.0824 168.076 77.1339 167.752 77.1247C167.438 77.1397 167.124 77.101 166.829 77.0111C166.533 76.9212 166.263 76.782 166.034 76.6019C165.806 76.4219 165.624 76.2048 165.499 75.964C165.375 75.7233 165.311 75.4638 165.311 75.2016C165.311 74.9394 165.375 74.68 165.499 74.4392C165.624 74.1984 165.806 73.9814 166.034 73.8013C166.263 73.6213 166.533 73.482 166.829 73.3921C167.124 73.3022 167.438 73.2636 167.752 73.2785C168.084 73.2641 168.415 73.313 168.72 73.4214C169.025 73.5297 169.297 73.6948 169.515 73.9039V73.2785L170.302 73.3035ZM169.462 75.1797C169.479 74.9063 169.396 74.6351 169.226 74.401C169.056 74.1669 168.806 73.9807 168.507 73.8664C168.209 73.7521 167.877 73.715 167.553 73.7598C167.229 73.8046 166.929 73.9293 166.691 74.1179C166.453 74.3064 166.288 74.55 166.217 74.8174C166.147 75.0848 166.174 75.3636 166.296 75.6179C166.417 75.8722 166.628 76.0903 166.899 76.2441C167.171 76.3979 167.491 76.4802 167.82 76.4806C168.034 76.4963 168.25 76.4744 168.454 76.4163C168.658 76.3583 168.845 76.2653 169.003 76.1434C169.161 76.0215 169.287 75.8733 169.373 75.7084C169.458 75.5436 169.501 75.3656 169.5 75.186L169.462 75.1797Z" fill="#263238"/>
<path d="M176.483 74.9921V77.2811H175.613V75.0484C175.613 74.2666 175.148 73.8851 174.33 73.8851C174.123 73.8738 173.914 73.9007 173.721 73.9641C173.527 74.0274 173.352 74.1255 173.209 74.2515C173.066 74.3774 172.958 74.5281 172.892 74.6929C172.827 74.8576 172.806 75.0324 172.83 75.2047V77.256H171.968V73.2785H172.8V73.9039C173.005 73.692 173.268 73.5244 173.567 73.4155C173.866 73.3066 174.192 73.2596 174.518 73.2785C174.788 73.2633 175.06 73.2979 175.312 73.3798C175.565 73.4616 175.793 73.5887 175.981 73.7522C176.168 73.9156 176.31 74.1114 176.397 74.3256C176.484 74.5399 176.513 74.7674 176.483 74.9921Z" fill="#263238"/>
<path d="M184.95 73.3035V77.2811H184.132V76.6557C183.942 76.8604 183.696 77.024 183.414 77.1328C183.132 77.2416 182.823 77.2925 182.512 77.2811C182.233 77.3051 181.952 77.2765 181.688 77.1977C181.424 77.1188 181.184 76.9916 180.987 76.8254C180.79 76.6591 180.64 76.4582 180.548 76.2372C180.457 76.0163 180.426 75.781 180.457 75.5487V73.2598H181.32V75.4674C181.32 76.2429 181.792 76.6369 182.61 76.6369C182.818 76.6494 183.027 76.6232 183.221 76.5603C183.416 76.4974 183.591 76.3993 183.734 76.273C183.878 76.1468 183.986 75.9956 184.051 75.8304C184.116 75.6651 184.136 75.4899 184.11 75.3173V73.2598L184.95 73.3035Z" fill="#263238"/>
<path d="M191.535 75.292C191.552 75.5605 191.501 75.829 191.387 76.0803C191.272 76.3317 191.096 76.5603 190.869 76.7516C190.643 76.9429 190.371 77.0927 190.071 77.1913C189.771 77.29 189.449 77.3353 189.127 77.3245C188.81 77.3348 188.495 77.2837 188.206 77.1752C187.917 77.0667 187.663 76.9037 187.462 76.6991V78.7504H186.6V73.322H187.425V73.9474C187.623 73.7296 187.881 73.5551 188.177 73.4385C188.474 73.322 188.8 73.267 189.127 73.2782C189.448 73.2666 189.767 73.3108 190.066 73.408C190.365 73.5052 190.637 73.6532 190.863 73.8427C191.09 74.0321 191.266 74.2588 191.382 74.5084C191.497 74.7579 191.549 75.0248 191.535 75.292ZM190.665 75.292C190.65 75.0305 190.544 74.7784 190.359 74.5669C190.174 74.3553 189.919 74.1935 189.625 74.1015C189.332 74.0096 189.012 73.9915 188.706 74.0494C188.4 74.1074 188.121 74.239 187.903 74.4278C187.686 74.6166 187.54 74.8544 187.483 75.1117C187.426 75.3691 187.461 75.6347 187.583 75.8758C187.705 76.1168 187.91 76.3227 188.171 76.4679C188.432 76.6132 188.738 76.6914 189.052 76.6929C189.271 76.6967 189.488 76.6626 189.69 76.5928C189.893 76.523 190.075 76.419 190.227 76.2873C190.378 76.1557 190.496 75.9993 190.571 75.8279C190.646 75.6566 190.678 75.4741 190.665 75.292Z" fill="#263238"/>
</g>
<path d="M223.44 106.656H125.31V120.665H223.44V106.656Z" fill="white"/>
<g opacity="0.4">
<path d="M130.681 111.378H131.191V115.024H133.883V115.393H130.681V111.378Z" fill="#263238"/>
<path d="M137.371 113.523V115.399H136.906V114.93C136.769 115.098 136.582 115.232 136.364 115.32C136.145 115.408 135.903 115.446 135.661 115.431C134.843 115.431 134.341 115.074 134.341 114.549C134.341 114.023 134.693 113.698 135.736 113.698H136.883V113.517C136.883 112.998 136.531 112.716 135.856 112.716C135.418 112.711 134.992 112.838 134.656 113.073L134.431 112.766C134.859 112.49 135.389 112.346 135.931 112.36C136.122 112.341 136.315 112.357 136.497 112.408C136.679 112.459 136.845 112.544 136.983 112.655C137.121 112.767 137.228 112.902 137.295 113.053C137.362 113.203 137.388 113.364 137.371 113.523ZM136.883 114.486V113.992H135.751C135.046 113.992 134.821 114.224 134.821 114.536C134.821 114.849 135.158 115.099 135.736 115.099C135.98 115.112 136.223 115.059 136.43 114.949C136.636 114.839 136.795 114.677 136.883 114.486Z" fill="#263238"/>
<path d="M138.195 115.074L138.413 114.755C138.791 114.975 139.241 115.093 139.703 115.093C140.393 115.093 140.67 114.899 140.67 114.599C140.67 113.811 138.33 114.43 138.33 113.242C138.33 112.748 138.833 112.379 139.755 112.379C140.206 112.374 140.649 112.471 141.038 112.66L140.82 112.985C140.505 112.811 140.133 112.722 139.755 112.729C139.103 112.729 138.818 112.941 138.818 113.229C138.818 114.042 141.158 113.429 141.158 114.586C141.158 115.112 140.61 115.449 139.658 115.449C139.135 115.459 138.622 115.327 138.195 115.074Z" fill="#263238"/>
<path d="M144.001 115.212C143.788 115.353 143.523 115.428 143.251 115.424C143.108 115.437 142.964 115.423 142.829 115.384C142.693 115.344 142.571 115.279 142.469 115.195C142.368 115.11 142.29 115.008 142.243 114.895C142.195 114.782 142.178 114.662 142.194 114.543V112.723H141.541V112.379H142.194V111.716H142.681V112.379H143.776V112.723H142.681V114.524C142.668 114.596 142.675 114.669 142.701 114.739C142.727 114.808 142.772 114.872 142.832 114.925C142.892 114.978 142.966 115.019 143.047 115.045C143.129 115.071 143.217 115.081 143.304 115.074C143.5 115.079 143.693 115.023 143.844 114.918L144.001 115.212Z" fill="#263238"/>
<path d="M150.75 111.378V115.393H150.33L147.24 112.135V115.393H146.73V111.378H147.15L150.248 114.636V111.378H150.75Z" fill="#263238"/>
<path d="M154.981 113.523V115.399H154.501V114.93C154.365 115.098 154.178 115.233 153.96 115.321C153.741 115.409 153.498 115.447 153.256 115.43C152.438 115.43 151.936 115.074 151.936 114.549C151.936 114.023 152.296 113.698 153.338 113.698H154.501V113.517C154.501 112.997 154.148 112.716 153.473 112.716C153.035 112.711 152.609 112.838 152.273 113.073L152.048 112.766C152.475 112.488 153.006 112.344 153.548 112.36C153.738 112.341 153.931 112.359 154.112 112.41C154.293 112.462 154.458 112.546 154.596 112.658C154.733 112.769 154.838 112.904 154.905 113.054C154.972 113.204 154.997 113.364 154.981 113.523ZM154.493 114.486V113.992H153.353C152.656 113.992 152.431 114.223 152.431 114.536C152.431 114.849 152.768 115.099 153.346 115.099C153.591 115.113 153.836 115.061 154.044 114.95C154.251 114.84 154.412 114.677 154.501 114.486H154.493Z" fill="#263238"/>
<path d="M162.279 113.642V115.393H161.791V113.686C161.791 113.06 161.401 112.723 160.749 112.723C160.579 112.716 160.411 112.74 160.254 112.794C160.097 112.847 159.956 112.929 159.841 113.033C159.726 113.136 159.64 113.26 159.588 113.394C159.536 113.528 159.52 113.671 159.541 113.811V115.393H159.054V113.686C159.054 113.06 158.664 112.723 158.004 112.723C157.834 112.716 157.666 112.74 157.509 112.794C157.352 112.847 157.211 112.929 157.096 113.033C156.981 113.136 156.895 113.26 156.843 113.394C156.791 113.528 156.775 113.671 156.796 113.811V115.393H156.309V112.379H156.751V112.929C156.893 112.745 157.09 112.594 157.323 112.493C157.556 112.392 157.816 112.344 158.079 112.354C158.344 112.335 158.611 112.386 158.841 112.497C159.072 112.609 159.256 112.777 159.369 112.979C159.517 112.777 159.727 112.613 159.978 112.503C160.229 112.393 160.511 112.341 160.794 112.354C160.999 112.337 161.206 112.359 161.399 112.419C161.593 112.478 161.768 112.574 161.911 112.698C162.053 112.822 162.161 112.971 162.225 113.135C162.288 113.298 162.307 113.472 162.279 113.642Z" fill="#263238"/>
<path d="M166.771 114.011H163.771C163.782 114.158 163.827 114.302 163.904 114.435C163.982 114.567 164.09 114.686 164.222 114.783C164.354 114.881 164.509 114.956 164.676 115.003C164.843 115.051 165.02 115.071 165.196 115.062C165.404 115.067 165.612 115.035 165.803 114.967C165.995 114.899 166.167 114.797 166.306 114.668L166.576 114.93C166.316 115.157 165.982 115.314 165.615 115.383C165.249 115.452 164.866 115.429 164.515 115.318C164.164 115.207 163.859 115.011 163.64 114.757C163.422 114.502 163.297 114.199 163.284 113.886C163.271 113.687 163.308 113.488 163.392 113.301C163.475 113.114 163.604 112.944 163.77 112.8C163.936 112.656 164.136 112.543 164.356 112.466C164.577 112.389 164.814 112.351 165.054 112.354C165.292 112.35 165.53 112.387 165.75 112.464C165.971 112.541 166.17 112.654 166.335 112.798C166.5 112.942 166.627 113.114 166.709 113.301C166.79 113.488 166.824 113.687 166.809 113.886C166.779 113.924 166.771 113.967 166.771 114.011ZM163.771 113.711H166.336C166.336 113.427 166.201 113.155 165.96 112.955C165.72 112.754 165.394 112.641 165.054 112.641C164.713 112.641 164.387 112.754 164.147 112.955C163.906 113.155 163.771 113.427 163.771 113.711Z" fill="#263238"/>
</g>
<path d="M223.44 87.519H125.31V101.528H223.44V87.519Z" fill="white"/>
<g opacity="0.4">
<path d="M131.191 92.6097V94.1857H133.681V94.5547H131.191V96.2558H130.681V92.2407H133.981V92.6097H131.191Z" fill="#263238"/>
<path d="M134.753 92.2844C134.752 92.2245 134.772 92.1656 134.811 92.1153C134.85 92.065 134.906 92.0256 134.972 92.0021C135.038 91.9786 135.111 91.9721 135.181 91.9835C135.252 91.9949 135.317 92.0236 135.367 92.066C135.418 92.1083 135.453 92.1624 135.466 92.2212C135.48 92.28 135.472 92.3409 135.444 92.396C135.416 92.4511 135.369 92.4979 135.308 92.5304C135.248 92.5629 135.177 92.5796 135.106 92.5784C135.012 92.5784 134.922 92.5474 134.856 92.4923C134.79 92.4371 134.753 92.3624 134.753 92.2844ZM134.858 93.2413H135.346V96.2557H134.858V93.2413Z" fill="#263238"/>
<path d="M138.533 93.2163V93.6103H138.413C138.241 93.6033 138.069 93.6282 137.91 93.6831C137.75 93.738 137.607 93.8217 137.491 93.9281C137.375 94.0345 137.289 94.161 137.238 94.2985C137.187 94.436 137.174 94.5811 137.198 94.7235V96.262H136.711V93.2476H137.176V93.8104C137.306 93.61 137.504 93.4464 137.746 93.3406C137.988 93.2347 138.262 93.1915 138.533 93.2163Z" fill="#263238"/>
<path d="M138.938 95.9118L139.156 95.5866C139.531 95.8132 139.983 95.9337 140.446 95.9305C141.136 95.9305 141.413 95.7304 141.413 95.4365C141.413 94.6485 139.073 95.2676 139.073 94.0731C139.073 93.5853 139.576 93.2163 140.498 93.2163C140.949 93.2081 141.393 93.3056 141.781 93.4977L141.563 93.8229C141.248 93.6492 140.876 93.5597 140.498 93.5665C139.846 93.5665 139.561 93.7792 139.561 94.0668C139.561 94.8799 141.901 94.267 141.901 95.424C141.901 95.943 141.353 96.2808 140.401 96.2808C139.879 96.2921 139.366 96.1627 138.938 95.9118Z" fill="#263238"/>
<path d="M144.751 96.0743C144.536 96.2108 144.272 96.2835 144.001 96.2807C143.859 96.2946 143.715 96.2816 143.579 96.2426C143.444 96.2036 143.321 96.1396 143.219 96.0555C143.118 95.9713 143.04 95.8692 142.992 95.7566C142.945 95.644 142.928 95.5239 142.944 95.4052V93.5852H142.291V93.2413H142.944V92.5596H143.431V93.2225H144.526V93.5665H143.431V95.3614C143.418 95.4337 143.425 95.5074 143.452 95.5771C143.478 95.6469 143.522 95.7108 143.582 95.7642C143.642 95.8177 143.715 95.8592 143.797 95.8858C143.878 95.9124 143.966 95.9234 144.054 95.918C144.25 95.9201 144.441 95.8648 144.594 95.7616L144.751 96.0743Z" fill="#263238"/>
<path d="M151.5 92.2407V96.2558H151.08L147.99 92.9975V96.2558H147.48V92.2407H147.9L150.998 95.4991V92.2407H151.5Z" fill="#263238"/>
<path d="M155.723 94.3857V96.262H155.251V95.7929C155.116 95.96 154.93 96.0939 154.713 96.1808C154.495 96.2677 154.253 96.3044 154.013 96.287C153.188 96.287 152.686 95.9367 152.686 95.4114C152.686 94.8861 153.046 94.5609 154.088 94.5609H155.251V94.3732C155.251 93.8604 154.898 93.579 154.223 93.579C153.785 93.5741 153.359 93.7006 153.023 93.9355L152.798 93.629C153.226 93.3514 153.756 93.2076 154.298 93.2225C154.488 93.2041 154.68 93.2213 154.861 93.2728C155.042 93.3244 155.207 93.4091 155.343 93.5206C155.48 93.6321 155.585 93.7676 155.651 93.9173C155.716 94.067 155.741 94.2271 155.723 94.3857ZM155.236 95.3489V94.8548H154.096C153.398 94.8548 153.173 95.0862 153.173 95.3926C153.173 95.6991 153.511 95.9618 154.088 95.9618C154.335 95.976 154.581 95.9243 154.79 95.8141C154.999 95.7038 155.16 95.5409 155.251 95.3489H155.236Z" fill="#263238"/>
<path d="M163.021 94.5046V96.2557H162.533V94.5484C162.533 93.923 162.143 93.5853 161.491 93.5853C161.322 93.5787 161.153 93.6031 160.996 93.6566C160.839 93.7102 160.699 93.7916 160.584 93.8952C160.469 93.9989 160.382 94.1222 160.33 94.2567C160.278 94.3911 160.262 94.5333 160.283 94.6735V96.2557H159.796V94.5484C159.796 93.923 159.406 93.5853 158.746 93.5853C158.577 93.5787 158.408 93.6031 158.251 93.6566C158.094 93.7102 157.954 93.7916 157.839 93.8952C157.724 93.9989 157.637 94.1222 157.585 94.2567C157.533 94.3911 157.517 94.5333 157.538 94.6735V96.2557H157.051V93.2413H157.501V93.8104C157.642 93.626 157.839 93.4758 158.072 93.3749C158.305 93.2739 158.566 93.2257 158.828 93.235C159.094 93.2168 159.36 93.267 159.591 93.3788C159.822 93.4907 160.006 93.6587 160.118 93.8604C160.265 93.658 160.475 93.4928 160.727 93.3826C160.978 93.2724 161.26 93.2214 161.543 93.235C161.746 93.2199 161.95 93.2426 162.14 93.3016C162.331 93.3606 162.504 93.4543 162.645 93.576C162.787 93.6977 162.894 93.8442 162.959 94.0049C163.024 94.1655 163.045 94.3363 163.021 94.5046Z" fill="#263238"/>
<path d="M167.513 94.8734H164.513C164.524 95.0205 164.569 95.1644 164.646 95.2969C164.724 95.4294 164.832 95.5479 164.964 95.6455C165.097 95.7431 165.251 95.818 165.418 95.8658C165.585 95.9136 165.762 95.9334 165.938 95.9241C166.147 95.9298 166.355 95.8968 166.547 95.8276C166.739 95.7584 166.91 95.6547 167.048 95.5238L167.318 95.7928C167.058 96.0191 166.724 96.1765 166.358 96.2455C165.991 96.3144 165.608 96.2917 165.257 96.1803C164.906 96.0689 164.602 95.8737 164.383 95.619C164.164 95.3643 164.04 95.0615 164.026 94.7483C164.013 94.5492 164.05 94.35 164.134 94.1632C164.218 93.9763 164.346 93.8058 164.512 93.6622C164.678 93.5186 164.878 93.4049 165.099 93.3281C165.319 93.2514 165.557 93.2133 165.796 93.2161C166.035 93.2122 166.272 93.2497 166.492 93.3263C166.713 93.4028 166.912 93.5167 167.077 93.6607C167.242 93.8048 167.369 93.9758 167.451 94.1631C167.532 94.3503 167.566 94.5496 167.551 94.7483C167.521 94.7796 167.513 94.8234 167.513 94.8734ZM164.513 94.567H167.078C167.078 94.2833 166.943 94.0113 166.703 93.8108C166.462 93.6102 166.136 93.4975 165.796 93.4975C165.456 93.4975 165.129 93.6102 164.889 93.8108C164.648 94.0113 164.513 94.2833 164.513 94.567Z" fill="#263238"/>
</g>
<path d="M88.3873 206.558H87.6748C87.6748 205.676 88.5523 185.013 92.8648 181.542C97.2973 177.946 102.51 181.492 102.555 181.542L102.105 181.992C101.91 181.861 97.3273 178.759 93.3523 181.992C89.2498 185.251 88.3948 206.346 88.3873 206.558Z" fill="#0EA5E9"/>
<path d="M88.0278 210.704L87.3228 210.648C87.3228 210.398 90.1128 185.557 79.3203 175.225L79.8528 174.837C90.8478 185.363 88.0578 210.454 88.0278 210.704Z" fill="#0EA5E9"/>
<path d="M88.3725 208.053C88.2825 206.877 86.205 179.284 94.5 172.905L94.98 173.343C86.9325 179.51 89.055 207.74 89.0775 208.009L88.3725 208.053Z" fill="#0EA5E9"/>
<path d="M87.323 208.034C87.323 207.846 87.068 189.272 81.1655 186.476C80.6637 186.201 80.0897 186.029 79.4919 185.977C78.8941 185.925 78.29 185.993 77.7305 186.176C74.273 187.371 72.4355 192.874 72.413 192.931L71.7305 192.774C71.8055 192.537 73.6805 186.939 77.4605 185.632C78.119 185.412 78.8315 185.327 79.5378 185.384C80.2441 185.442 80.9233 185.641 81.518 185.964C87.7655 188.947 88.028 207.227 88.0355 208.028L87.323 208.034Z" fill="#0EA5E9"/>
<path d="M89.7524 208.046C89.7074 207.421 88.7999 193.387 93.5774 188.177C94.8524 186.795 96.2624 186.139 97.7924 186.232C101.19 186.426 103.792 190.266 103.935 190.429L103.32 190.723C103.32 190.685 100.755 186.97 97.7399 186.82C96.4724 186.739 95.2574 187.321 94.1399 188.54C89.5199 193.543 90.4499 207.871 90.4574 208.015L89.7524 208.046Z" fill="#0EA5E9"/>
<path d="M88.8005 209.992L88.0955 209.948C88.0955 209.61 91.0955 176.101 86.1455 170.51L86.7155 170.16C91.8305 175.926 88.928 208.603 88.8005 209.992Z" fill="#0EA5E9"/>
<path d="M76.0875 188.965C76.0875 188.965 79.1475 189.91 78.24 192.13C77.3325 194.35 67.6425 198.009 67.6425 198.009C67.6425 198.009 63.585 194.913 67.3125 189.878C71.04 184.844 76.005 187.377 76.0875 188.965Z" fill="#0EA5E9"/>
<path opacity="0.2" d="M76.0875 188.965C76.0875 188.965 79.1475 189.91 78.24 192.13C77.3325 194.35 67.6425 198.009 67.6425 198.009C67.6425 198.009 63.585 194.913 67.3125 189.878C71.04 184.844 76.005 187.377 76.0875 188.965Z" fill="black"/>
<path d="M89.3999 184.738C89.3999 184.738 86.1374 184.625 85.9499 186.964C85.7624 189.303 92.9999 195.795 92.9999 195.795C92.9999 195.795 98.1749 194.231 97.0649 188.384C95.9549 182.536 90.2099 183.293 89.3999 184.738Z" fill="#0EA5E9"/>
<path opacity="0.2" d="M89.3999 184.738C89.3999 184.738 86.1374 184.625 85.9499 186.964C85.7624 189.303 92.9999 195.795 92.9999 195.795C92.9999 195.795 98.1749 194.231 97.0649 188.384C95.9549 182.536 90.2099 183.293 89.3999 184.738Z" fill="black"/>
<path d="M92.1597 173.518C92.1597 173.518 89.9847 173.324 90.1572 172.223C90.3297 171.123 98.6097 168.277 103.492 172.849C103.492 172.849 100.365 177.327 95.8497 177.389C91.3347 177.452 92.1597 173.518 92.1597 173.518Z" fill="#0EA5E9"/>
<path opacity="0.2" d="M92.1597 173.518C92.1597 173.518 89.9847 173.324 90.1572 172.223C90.3297 171.123 98.6097 168.277 103.492 172.849C103.492 172.849 100.365 177.327 95.8497 177.389C91.3347 177.452 92.1597 173.518 92.1597 173.518Z" fill="black"/>
<path d="M88.11 170.835C88.11 170.835 90.075 171.629 90.63 170.616C91.185 169.603 85.9575 163.543 78.9 165.288C78.9 165.288 78.7125 170.466 82.5075 172.511C86.3025 174.556 88.11 170.835 88.11 170.835Z" fill="#0EA5E9"/>
<path opacity="0.2" d="M88.11 170.835C88.11 170.835 90.075 171.629 90.63 170.616C91.185 169.603 85.9575 163.543 78.9 165.288C78.9 165.288 78.7125 170.466 82.5075 172.511C86.3025 174.556 88.11 170.835 88.11 170.835Z" fill="black"/>
<path d="M98.4004 188.077C98.4004 188.077 96.9004 187.064 98.5204 186.57C100.14 186.076 108.083 186.22 108.165 192.78C108.165 192.78 98.9104 194.062 97.7704 191.561C96.6304 189.059 98.4004 188.077 98.4004 188.077Z" fill="#0EA5E9"/>
<path opacity="0.2" d="M98.4004 188.077C98.4004 188.077 96.9004 187.064 98.5204 186.57C100.14 186.076 108.083 186.22 108.165 192.78C108.165 192.78 98.9104 194.062 97.7704 191.561C96.6304 189.059 98.4004 188.077 98.4004 188.077Z" fill="black"/>
<path d="M79.5003 173.356C79.5003 173.356 81.0003 172.342 79.3803 171.855C77.7603 171.367 69.8179 171.498 69.7354 178.059C69.7354 178.059 78.9903 179.347 80.1303 176.845C81.2703 174.344 79.5003 173.356 79.5003 173.356Z" fill="#0EA5E9"/>
<path opacity="0.2" d="M79.5003 173.356C79.5003 173.356 81.0003 172.342 79.3803 171.855C77.7603 171.367 69.8179 171.498 69.7354 178.059C69.7354 178.059 78.9903 179.347 80.1303 176.845C81.2703 174.344 79.5003 173.356 79.5003 173.356Z" fill="black"/>
<path d="M84.4203 178.64C84.4203 178.64 84.5553 177.389 83.3628 177.896C82.1703 178.402 78.0378 182.105 82.3278 185.638C82.3278 185.638 88.1103 182.067 87.0678 180.21C86.0253 178.352 84.4203 178.64 84.4203 178.64Z" fill="#0EA5E9"/>
<path opacity="0.2" d="M84.4203 178.64C84.4203 178.64 84.5553 177.389 83.3628 177.896C82.1703 178.402 78.0378 182.105 82.3278 185.638C82.3278 185.638 88.1103 182.067 87.0678 180.21C86.0253 178.352 84.4203 178.64 84.4203 178.64Z" fill="black"/>
<path d="M99.7499 180.391C99.7499 180.391 98.8499 179.409 100.17 179.29C101.49 179.172 107.37 180.479 105.997 185.382C105.997 185.382 98.8274 184.932 98.4974 182.88C98.1674 180.829 99.7499 180.391 99.7499 180.391Z" fill="#0EA5E9"/>
<path opacity="0.2" d="M99.7499 180.391C99.7499 180.391 98.8499 179.409 100.17 179.29C101.49 179.172 107.37 180.479 105.997 185.382C105.997 185.382 98.8274 184.932 98.4974 182.88C98.1674 180.829 99.7499 180.391 99.7499 180.391Z" fill="black"/>
<path d="M76.6196 226.22H99.8021L102.885 207.421H73.5371L76.6196 226.22Z" fill="#263238"/>
<path opacity="0.2" d="M76.6196 226.22H99.8021L102.885 207.421H73.5371L76.6196 226.22Z" fill="white"/>
<path d="M105.795 205.895V207.684C105.795 208.258 105.522 208.808 105.035 209.214C104.549 209.62 103.889 209.848 103.2 209.848H72.9378C72.2495 209.848 71.5895 209.62 71.1028 209.214C70.6162 208.808 70.3428 208.258 70.3428 207.684V205.895H105.795Z" fill="#263238"/>
<path d="M298.966 27.7116H277.418C275.66 27.7116 273.973 28.294 272.73 29.3308C271.487 30.3676 270.788 31.7739 270.788 33.2401V48.8752C270.787 49.6017 270.958 50.3213 271.291 50.9928C271.623 51.6643 272.112 52.2745 272.727 52.7885C273.343 53.3025 274.074 53.7103 274.879 53.9886C275.684 54.2668 276.547 54.41 277.418 54.41H283.711L282.211 59.3444L288.211 54.41H299.003C300.763 54.41 302.452 53.8269 303.697 52.7889C304.941 51.7509 305.641 50.3431 305.641 48.8752V33.2401C305.641 32.5109 305.468 31.7889 305.132 31.1157C304.796 30.4425 304.303 29.8314 303.683 29.3175C303.062 28.8036 302.326 28.3972 301.517 28.1216C300.707 27.846 299.84 27.7066 298.966 27.7116Z" fill="#0EA5E9"/>
<path opacity="0.7" d="M298.966 27.7116H277.418C275.66 27.7116 273.973 28.294 272.73 29.3308C271.487 30.3676 270.788 31.7739 270.788 33.2401V48.8752C270.787 49.6017 270.958 50.3213 271.291 50.9928C271.623 51.6643 272.112 52.2745 272.727 52.7885C273.343 53.3025 274.074 53.7103 274.879 53.9886C275.684 54.2668 276.547 54.41 277.418 54.41H283.711L282.211 59.3444L288.211 54.41H299.003C300.763 54.41 302.452 53.8269 303.697 52.7889C304.941 51.7509 305.641 50.3431 305.641 48.8752V33.2401C305.641 32.5109 305.468 31.7889 305.132 31.1157C304.796 30.4425 304.303 29.8314 303.683 29.3175C303.062 28.8036 302.326 28.3972 301.517 28.1216C300.707 27.846 299.84 27.7066 298.966 27.7116Z" fill="white"/>
<path d="M288.196 47.9684C292.814 47.9684 296.558 44.8464 296.558 40.9952C296.558 37.144 292.814 34.022 288.196 34.022C283.577 34.022 279.833 37.144 279.833 40.9952C279.833 44.8464 283.577 47.9684 288.196 47.9684Z" fill="white"/>
<path d="M288.196 32.0772C286.081 32.0772 284.013 32.6002 282.254 33.5801C280.495 34.5601 279.125 35.9529 278.315 37.5825C277.506 39.2121 277.294 41.0053 277.706 42.7353C278.119 44.4652 279.138 46.0543 280.633 47.3015C282.129 48.5488 284.035 49.3982 286.109 49.7423C288.184 50.0864 290.335 49.9098 292.289 49.2348C294.243 48.5598 295.913 47.4167 297.089 45.9501C298.264 44.4835 298.891 42.7593 298.891 40.9954C298.892 39.824 298.616 38.6639 298.079 37.5816C297.542 36.4992 296.754 35.5157 295.761 34.6874C294.767 33.8591 293.588 33.2022 292.29 32.7543C290.992 32.3064 289.601 32.0763 288.196 32.0772ZM294.263 38.3312L287.821 44.6603C287.73 44.7517 287.615 44.825 287.485 44.8748C287.355 44.9245 287.214 44.9495 287.071 44.9479C286.928 44.9487 286.787 44.9233 286.658 44.8736C286.528 44.8238 286.413 44.751 286.321 44.6603L282.128 40.5388C282.04 40.4574 281.972 40.3618 281.929 40.258C281.885 40.1541 281.867 40.044 281.876 39.9342C281.885 39.8245 281.92 39.7173 281.979 39.6192C282.039 39.521 282.122 39.4338 282.222 39.3628C282.323 39.2919 282.44 39.2385 282.566 39.206C282.692 39.1735 282.824 39.1624 282.956 39.1735C283.087 39.1846 283.214 39.2177 283.33 39.2707C283.445 39.3236 283.547 39.3955 283.628 39.4819L287.071 42.8653L292.763 37.2742C292.935 37.1169 293.172 37.0211 293.426 37.007C293.68 36.9929 293.931 37.0616 294.126 37.1987C294.32 37.3357 294.443 37.5304 294.469 37.7417C294.495 37.953 294.421 38.1643 294.263 38.3312Z" fill="#0EA5E9"/>
<path d="M295.231 124.18C295.231 124.18 282.173 122.804 262.388 127.307C262.388 127.307 259.208 97.8254 259.583 93.7728C259.958 89.7202 290.131 90.9085 290.131 90.9085C290.131 90.9085 290.881 102.71 292.846 109.827C294.811 116.944 296.251 122.81 295.231 124.18Z" fill="#0EA5E9"/>
<path opacity="0.2" d="M295.231 124.18C295.231 124.18 282.173 122.804 262.388 127.307C262.388 127.307 259.208 97.8254 259.583 93.7728C259.958 89.7202 290.131 90.9085 290.131 90.9085C290.131 90.9085 290.881 102.71 292.846 109.827C294.811 116.944 296.251 122.81 295.231 124.18Z" fill="black"/>
<path d="M252.848 221.78L258.173 223.037L259.44 216.127L260.123 212.43L254.798 211.173L253.89 216.127L252.848 221.78Z" fill="#E4897B"/>
<path d="M283.463 222.143L288.953 222.75L289.005 216.127L289.043 212.012L283.545 211.411L283.508 216.127L283.463 222.143Z" fill="#E4897B"/>
<path opacity="0.2" d="M283.545 211.411L283.508 216.127H289.005L289.043 212.012L283.545 211.411Z" fill="black"/>
<path opacity="0.2" d="M253.891 216.127H259.441L260.123 212.43L254.798 211.173L253.891 216.127Z" fill="black"/>
<path d="M229.208 96.1929L223.921 94.8921L224.888 99.9266C224.888 99.9266 229.688 100.846 230.138 98.7633L229.208 96.1929Z" fill="#E4897B"/>
<path d="M218.641 96.0616L221.236 100.152L224.888 99.9266L223.921 94.8921L218.641 96.0616Z" fill="#E4897B"/>
<path d="M236.506 97.4816L227.821 95.8618L227.033 99.3766L234.916 100.978L236.506 97.4816Z" fill="#E4897B"/>
<path d="M262.779 94.3046L262.269 94.8112C261.174 95.8806 258.519 98.4635 255.751 100.69C253.501 102.504 251.251 104.086 249.751 104.405C245.499 105.318 230.041 101.522 230.041 101.522L231.639 96.2934C231.639 96.2934 246.039 97.8881 247.156 97.8881C248.004 97.8881 256.764 87.3063 258.886 86.437L262.779 94.3046Z" fill="#0EA5E9"/>
<path opacity="0.2" d="M262.268 94.8109C261.173 95.8803 258.518 98.4632 255.751 100.69C256.306 97.0248 257.918 93.6601 260.041 91.5338C260.239 91.3285 260.465 91.1437 260.716 90.9834L262.268 94.8109Z" fill="black"/>
<path d="M252.916 221.086L258.961 220.955C259.07 220.952 259.177 220.98 259.264 221.035C259.351 221.089 259.414 221.167 259.441 221.255L260.716 225.314C260.746 225.411 260.75 225.513 260.727 225.611C260.704 225.71 260.655 225.803 260.583 225.883C260.511 225.964 260.418 226.03 260.311 226.076C260.204 226.123 260.086 226.149 259.966 226.152C257.783 226.152 254.626 226.152 251.888 226.196C248.678 226.271 246.638 226.139 242.888 226.196C240.638 226.246 239.888 224.357 240.848 224.163C245.146 223.275 247.958 223.45 251.618 221.449C252.005 221.234 252.453 221.109 252.916 221.086Z" fill="#263238"/>
<path d="M252.391 221.737C251.506 221.899 249.931 222.118 249.301 221.687C249.209 221.623 249.137 221.542 249.09 221.451C249.043 221.36 249.023 221.26 249.031 221.161C249.031 221.102 249.049 221.043 249.085 220.991C249.12 220.94 249.172 220.897 249.234 220.867C249.901 220.536 252.159 221.43 252.421 221.53C252.444 221.54 252.463 221.556 252.476 221.575C252.49 221.593 252.496 221.615 252.496 221.637C252.495 221.661 252.484 221.684 252.465 221.702C252.446 221.72 252.42 221.732 252.391 221.737ZM249.391 221.042H249.346C249.321 221.054 249.3 221.072 249.286 221.093C249.271 221.113 249.264 221.137 249.264 221.161C249.257 221.226 249.27 221.291 249.3 221.351C249.33 221.41 249.377 221.463 249.436 221.505C249.789 221.749 250.704 221.774 251.919 221.574C251.041 221.268 249.819 220.911 249.406 221.042H249.391Z" fill="#0EA5E9"/>
<path d="M252.391 221.736H252.301C251.618 221.499 250.253 220.536 250.328 220.016C250.328 219.891 250.448 219.735 250.808 219.698C250.94 219.683 251.075 219.691 251.203 219.72C251.332 219.749 251.453 219.798 251.558 219.866C252.308 220.335 252.481 221.567 252.496 221.618C252.498 221.637 252.494 221.656 252.485 221.673C252.476 221.691 252.461 221.706 252.443 221.718L252.391 221.736ZM250.711 219.941C250.598 219.973 250.591 220.023 250.591 220.042C250.546 220.354 251.476 221.117 252.173 221.442C252.093 220.917 251.814 220.427 251.378 220.042C251.304 219.99 251.218 219.952 251.124 219.93C251.031 219.908 250.934 219.904 250.838 219.916C250.794 219.92 250.752 219.928 250.711 219.941Z" fill="#0EA5E9"/>
<path d="M283.68 221.086L289.725 220.955C289.835 220.952 289.943 220.98 290.032 221.034C290.12 221.089 290.184 221.166 290.213 221.255L291.48 225.314C291.512 225.411 291.517 225.513 291.495 225.612C291.472 225.711 291.423 225.805 291.351 225.886C291.278 225.966 291.185 226.032 291.077 226.079C290.97 226.125 290.851 226.15 290.73 226.152C288.548 226.152 285.39 226.152 282.645 226.196C279.443 226.271 277.395 226.139 273.645 226.196C271.395 226.246 270.645 224.357 271.605 224.163C275.903 223.275 278.708 223.45 282.368 221.449C282.758 221.232 283.212 221.107 283.68 221.086Z" fill="#263238"/>
<path d="M283.164 221.737C282.279 221.899 280.696 222.118 280.074 221.687C279.982 221.623 279.909 221.542 279.862 221.451C279.815 221.36 279.795 221.26 279.804 221.161C279.803 221.102 279.822 221.043 279.857 220.991C279.893 220.94 279.944 220.897 280.006 220.867C280.666 220.536 282.931 221.43 283.186 221.53C283.211 221.538 283.232 221.553 283.246 221.573C283.259 221.592 283.265 221.614 283.261 221.637C283.259 221.659 283.249 221.681 283.231 221.699C283.214 221.717 283.19 221.73 283.164 221.737ZM280.164 221.042H280.119C280.094 221.054 280.074 221.072 280.06 221.093C280.047 221.114 280.041 221.137 280.044 221.161C280.036 221.226 280.048 221.291 280.078 221.351C280.108 221.411 280.155 221.464 280.216 221.505C280.569 221.749 281.476 221.774 282.699 221.574C281.806 221.268 280.584 220.911 280.171 221.042H280.164Z" fill="#0EA5E9"/>
<path d="M283.163 221.736H283.065C282.39 221.499 281.018 220.536 281.1 220.017C281.1 219.892 281.213 219.735 281.573 219.698C281.705 219.683 281.839 219.69 281.968 219.719C282.097 219.748 282.218 219.798 282.323 219.867C282.847 220.354 283.175 220.966 283.26 221.618C283.264 221.637 283.261 221.656 283.252 221.674C283.242 221.692 283.227 221.707 283.208 221.718L283.163 221.736ZM281.475 219.942C281.37 219.973 281.363 220.023 281.363 220.042C281.31 220.354 282.248 221.117 282.945 221.443C282.859 220.918 282.582 220.429 282.15 220.042C282.076 219.99 281.989 219.952 281.896 219.931C281.803 219.909 281.706 219.904 281.61 219.917L281.475 219.942Z" fill="#0EA5E9"/>
<path d="M294.789 121.491C297.699 132.004 292.704 214.713 292.704 214.713H283.059L278.934 145.788L263.746 214.713L253.434 214.088C260.184 160.691 266.131 128.814 266.131 128.814V124.787L294.789 121.491Z" fill="#263238"/>
<path opacity="0.4" d="M253.434 214.088L263.746 214.713L275.701 160.453L278.934 145.788L283.059 214.713H292.704C292.704 214.713 297.699 132.004 294.789 121.491L266.116 124.787V128.814C266.116 128.814 260.176 160.691 253.434 214.088Z" fill="white"/>
<path d="M289.59 82.5533C289.295 87.5798 289.448 92.6178 290.048 97.6255C290.453 101.128 291.008 104.436 291.6 107.419C292.988 114.418 294.563 119.665 294.788 121.497L266.115 124.793C255.66 100.402 259.598 86.2306 259.598 86.2306C261.742 85.4925 263.938 84.8659 266.175 84.3544C266.648 84.2481 267.128 84.148 267.623 84.0542C271.65 83.3934 275.719 82.9257 279.81 82.6533C280.56 82.597 281.378 82.5533 282.143 82.522C286.058 82.3594 289.59 82.5533 289.59 82.5533Z" fill="#263238"/>
<path d="M274.245 71.5771C274.455 74.9231 274.883 81.2021 278.22 82.7969C278.22 82.7969 276.143 86.0927 271.65 86.4305C268.253 86.6806 268.478 83.8851 268.478 83.8851C270.443 82.6655 269.978 80.5955 268.478 78.2565L274.245 71.5771Z" fill="#E4897B"/>
<path opacity="0.2" d="M271.891 74.3042L268.501 78.2567C268.858 78.7973 269.159 79.3622 269.401 79.9453C270.976 79.42 272.783 77.4437 272.521 76.0115C272.439 75.4149 272.225 74.8361 271.891 74.3042Z" fill="black"/>
<path d="M259.621 64.8418C258.968 66.5804 259.328 70.1452 262.231 68.9882C265.133 67.8312 260.746 61.8586 259.621 64.8418Z" fill="#263238"/>
<path d="M274.621 67.1933C274.943 71.6524 275.371 74.2479 273.038 76.7745C269.491 80.5707 262.621 79.1573 260.701 74.8545C258.976 70.977 258.743 64.3352 263.701 62.0838C264.8 61.5852 266.032 61.3273 267.283 61.3341C268.534 61.3409 269.763 61.6123 270.854 62.1227C271.945 62.6332 272.863 63.3662 273.521 64.253C274.18 65.1398 274.559 66.1514 274.621 67.1933Z" fill="#E4897B"/>
<path d="M270.87 64.7668V59.7636C270.87 59.7636 277.23 59.3696 276.945 62.0838C280.47 63.541 278.805 68.1127 274.073 70.3517C271.478 68.6193 271.778 64.4541 271.778 64.4541C271.5 64.5729 271.185 64.673 270.87 64.7668Z" fill="#263238"/>
<path d="M277.208 70.6705C277.086 71.216 276.833 71.7355 276.466 72.1985C276.099 72.6614 275.625 73.0584 275.071 73.366C273.571 74.1853 272.273 73.1784 272.221 71.7712C272.176 70.5204 272.888 68.5441 274.613 68.294C274.991 68.2449 275.377 68.2747 275.737 68.3805C276.097 68.4863 276.42 68.6649 276.677 68.9004C276.934 69.1358 277.117 69.4208 277.21 69.7297C277.303 70.0386 277.302 70.3618 277.208 70.6705Z" fill="#E4897B"/>
<path d="M266.723 69.1822C266.775 69.545 266.588 69.8577 266.303 69.8827C266.018 69.9077 265.748 69.6388 265.695 69.2573C265.643 68.8758 265.83 68.5818 266.108 68.5568C266.385 68.5318 266.67 68.7945 266.723 69.1822Z" fill="#263238"/>
<path d="M261.819 69.6386C261.871 70.0014 261.684 70.3141 261.399 70.3391C261.114 70.3641 260.844 70.0952 260.791 69.7137C260.739 69.3322 260.926 69.0383 261.211 69.0132C261.496 68.9882 261.751 69.2759 261.819 69.6386Z" fill="#263238"/>
<path d="M263.401 69.6699C263.022 70.7882 262.459 71.8574 261.729 72.847C262.052 72.9856 262.407 73.0656 262.77 73.0818C263.133 73.098 263.497 73.0499 263.836 72.9408L263.401 69.6699Z" fill="#DE5753"/>
<path d="M266.363 74.1039C266.178 74.1433 265.99 74.1725 265.8 74.1915C265.767 74.1915 265.734 74.1803 265.71 74.1603C265.686 74.1404 265.673 74.1134 265.673 74.0852C265.673 74.057 265.686 74.0299 265.71 74.01C265.734 73.99 265.767 73.9788 265.8 73.9788C266.339 73.9381 266.858 73.7923 267.317 73.5533C267.776 73.3143 268.16 72.9888 268.44 72.603C268.447 72.5903 268.456 72.5789 268.468 72.5695C268.48 72.56 268.494 72.5527 268.51 72.548C268.525 72.5433 268.542 72.5413 268.558 72.5422C268.575 72.543 268.591 72.5467 268.605 72.5529C268.621 72.5589 268.635 72.5675 268.646 72.578C268.657 72.5885 268.666 72.6009 268.672 72.6143C268.677 72.6277 268.68 72.6419 268.679 72.6561C268.677 72.6702 268.673 72.6841 268.665 72.6968C268.42 73.052 268.089 73.3606 267.692 73.6029C267.296 73.8452 266.843 74.0159 266.363 74.1039Z" fill="#263238"/>
<path d="M268.043 67.725C267.998 67.7338 267.951 67.7327 267.906 67.7217C267.861 67.7108 267.821 67.6904 267.788 67.6625C267.571 67.464 267.301 67.3104 267.001 67.2138C266.7 67.1172 266.377 67.0803 266.056 67.1059C266.023 67.1123 265.988 67.1129 265.955 67.1077C265.922 67.1025 265.89 67.0917 265.862 67.0758C265.834 67.06 265.81 67.0395 265.792 67.0156C265.773 66.9917 265.761 66.965 265.756 66.937C265.749 66.9095 265.749 66.8812 265.756 66.8537C265.763 66.8262 265.776 66.8001 265.795 66.7768C265.813 66.7535 265.838 66.7336 265.866 66.7182C265.894 66.7028 265.925 66.6921 265.958 66.6869C266.363 66.6467 266.774 66.6875 267.156 66.8061C267.538 66.9247 267.881 67.1175 268.156 67.3686C268.18 67.3879 268.2 67.4111 268.213 67.4369C268.227 67.4627 268.233 67.4906 268.233 67.5187C268.233 67.5468 268.227 67.5746 268.213 67.6004C268.2 67.6262 268.18 67.6495 268.156 67.6688C268.124 67.6942 268.085 67.7134 268.043 67.725Z" fill="#263238"/>
<path d="M259.501 68.4315C259.452 68.4469 259.399 68.4469 259.351 68.4315C259.287 68.413 259.235 68.3744 259.206 68.3241C259.176 68.2737 259.172 68.2157 259.193 68.1626C259.317 67.8407 259.532 67.5486 259.821 67.3112C260.11 67.0737 260.463 66.8981 260.851 66.7992C260.916 66.7851 260.986 66.7933 261.044 66.8221C261.103 66.8508 261.145 66.8977 261.162 66.9524C261.179 67.0072 261.169 67.0653 261.134 67.1139C261.1 67.1626 261.044 67.1979 260.978 67.212C260.671 67.2908 260.393 67.4313 260.166 67.621C259.94 67.8108 259.773 68.044 259.681 68.3002C259.666 68.333 259.642 68.3622 259.611 68.3852C259.579 68.4082 259.542 68.4241 259.501 68.4315Z" fill="#263238"/>
<path d="M273.691 66.6178C273.691 66.6178 269.941 65.4733 268.231 63.6596C268.231 63.6596 264.826 64.4038 264.129 65.5358C263.81 65.3085 263.604 64.991 263.55 64.6445C263.496 64.2981 263.598 63.9472 263.836 63.6596C263.836 63.6596 261.286 64.1099 260.783 65.5358C260.369 65.3713 260.029 65.1003 259.813 64.7625C259.597 64.4248 259.516 64.0382 259.583 63.6596C259.583 63.6596 258.451 64.0161 258.083 65.5358C258.083 65.5358 255.271 60.6452 264.563 59.2443C263.86 59.0453 263.123 58.9418 262.381 58.9378C262.381 58.9378 268.868 56.7552 274.006 58.7502C279.143 60.7452 278.251 64.6102 273.691 66.6178Z" fill="#263238"/>
<path d="M297.001 125.706L288.001 126.706C288.001 126.706 284.288 105.074 282.653 98.088V83.1784L287.356 82.1465L291.001 83.1784C292 86.1781 292.77 89.2279 293.303 92.3093C293.746 94.6483 294.143 97.1499 294.496 99.6828C294.983 103.135 295.388 106.65 295.733 109.939C296.273 115.249 296.633 119.946 296.828 122.816C296.941 124.618 297.001 125.706 297.001 125.706Z" fill="#0EA5E9"/>
<path d="M282.661 98.0758C282.661 98.0758 283.411 87.5503 287.363 82.1218C287.363 82.1218 287.266 80.5708 286.478 80.3206C285.691 80.0704 282.661 81.5714 282.661 81.5714C282.661 81.5714 280.778 80.4957 280.366 80.996C279.953 81.4964 278.948 84.8235 282.661 98.0758Z" fill="#0EA5E9"/>
<path opacity="0.7" d="M282.661 98.0758C282.661 98.0758 283.411 87.5503 287.363 82.1218C287.363 82.1218 287.266 80.5708 286.478 80.3206C285.691 80.0704 282.661 81.5714 282.661 81.5714C282.661 81.5714 280.778 80.4957 280.366 80.996C279.953 81.4964 278.948 84.8235 282.661 98.0758Z" fill="white"/>
<path d="M262.2 128.589L263.228 129.214C263.228 129.214 261.728 122.241 262.343 104.605C262.343 103.754 262.41 102.935 262.448 102.153C263.198 87.2309 265.988 84.5166 266.198 84.354L263.603 85.092L258.9 86.4428C257.483 99.1698 262.2 128.589 262.2 128.589Z" fill="#0EA5E9"/>
<path d="M262.606 99.5829C262.606 99.5829 260.011 89.3513 260.783 85.8241C261.556 82.2968 264.323 83.8665 264.323 83.8665C264.323 83.8665 266.866 82.1529 267.623 84.0417C267.623 84.0417 264.128 86.093 262.606 99.5829Z" fill="#0EA5E9"/>
<path opacity="0.7" d="M262.606 99.5829C262.606 99.5829 260.011 89.3513 260.783 85.8241C261.556 82.2968 264.323 83.8665 264.323 83.8665C264.323 83.8665 266.866 82.1529 267.623 84.0417C267.623 84.0417 264.128 86.093 262.606 99.5829Z" fill="white"/>
<path opacity="0.2" d="M294.481 99.6577C290.641 97.8628 290.131 93.1785 290.131 93.1785C290.363 93.1035 291.788 92.6969 293.288 92.2842C293.731 94.6232 294.128 97.1248 294.481 99.6577Z" fill="black"/>
<path opacity="0.2" d="M275.7 160.453L278.933 145.788L278.31 138.026C278.31 138.026 273.878 151.485 275.7 160.453Z" fill="black"/>
<path opacity="0.2" d="M296.813 122.792C294.398 122.654 292.313 122.523 292.313 122.523L291.855 114.336C292.608 113.943 293.512 113.805 294.383 113.948C294.976 112.641 295.426 111.29 295.725 109.915C296.25 115.224 296.618 119.927 296.813 122.792Z" fill="black"/>
<path d="M297.638 109.908L292.936 116.206L296.656 117.988L301.073 112.316L297.638 109.908Z" fill="#E4897B"/>
<path d="M290.798 83.0786C293.963 83.3663 307.418 98.7637 308.011 103.404C308.603 108.045 300.106 116.056 300.106 116.056L294.436 113.273C294.436 113.273 300.196 105.887 300.496 103.892C300.796 101.897 289.958 93.8355 289.958 93.8355C289.139 91.9785 288.688 90.0224 288.623 88.0443C288.473 84.6546 290.798 83.0786 290.798 83.0786Z" fill="#0EA5E9"/>
<path d="M291.848 114.342C291.848 114.342 296.686 115.205 298.636 117.744C298.636 117.744 296.611 123.029 295.163 123.604C293.716 124.18 290.131 124.18 290.131 124.18C290.131 124.18 289.898 118.301 291.848 114.342Z" fill="#0EA5E9"/>
</svg>
